<svg width="1052" height="618" viewBox="0 0 1052 618" fill="none" xmlns="http://www.w3.org/2000/svg">
<g clip-path="url(#clip0_112_666)">
<path d="M856.289 402.661L839.96 363.045L812.694 370.728L757.002 235.577L694.914 253.072L695.1 253.532L675.074 325.026L646.581 426.735L663.203 457.087L721.83 440.564L743.172 434.547L766.931 427.848L786.328 474.932L848.418 457.437L829.019 410.353L856.289 402.661ZM743.392 390.263L729.308 394.233L702.335 401.837L720.745 326.238L722.477 319.965L750.602 388.229L743.392 390.263Z" fill="#9DC2E7"/>
<path opacity="0.25" d="M829.019 410.351L848.418 457.435L808.871 443.444L745.664 255.09L722.477 319.966L711.74 356.712L675.076 325.023L695.102 253.53L694.916 253.07L757.002 235.577L812.692 370.73L839.958 363.045L856.289 402.661L829.019 410.351Z" fill="#010101"/>
<path opacity="0.25" d="M743.172 434.545L721.83 440.563L724.966 404.187V397.556L729.308 394.233L732.101 392.099L743.39 390.263C743.392 390.263 742.693 416.982 743.172 434.545Z" fill="#010101"/>
<path d="M743.396 390.262C743.396 390.262 738.061 384.722 728.749 385.362C719.436 386.003 714.24 388.892 713.928 396.914C713.615 404.937 715.929 445.37 713.803 461.415C711.678 477.461 724.904 479.065 725.662 467.192C726.422 455.319 720.802 418.094 724.968 411.998C729.138 405.901 726.6 418.736 730.972 422.909C735.346 427.08 740 419.699 735.346 409.752C730.688 399.803 743.396 390.262 743.396 390.262Z" fill="url(#paint0_linear_112_666)"/>
<path d="M174.817 330.359C173.222 330.359 172.041 330.287 171.532 330.111C170.937 329.904 169.122 329.278 153.278 305.887L156.126 304.568C162.043 313.303 171.017 326.016 172.917 327.642C174.641 327.872 184.117 327.326 192.513 326.628L192.841 329.316C187.555 329.754 179.443 330.359 174.817 330.359Z" fill="#F26647"/>
<path d="M232.251 341.702V342.485C232.251 342.485 231.386 357.332 217.946 356.691C217.913 356.691 217.881 356.684 217.847 356.684C209.536 356.239 199.249 353.031 192.351 350.649C188.017 349.15 185.012 347.975 184.678 348.022C183.804 348.136 194.857 386.166 194.71 388.332C194.694 388.623 194.612 388.933 194.489 389.252C193.706 391.311 190.972 393.781 189.331 393.985C189.158 394.006 188.809 393.741 188.311 393.227C183.314 388.09 163.533 358.245 162.993 348.5C162.414 337.792 168.96 331.343 177.836 330.114C184.383 329.209 203.528 331.39 213.12 332.599C216.526 333.03 218.721 333.334 218.721 333.334L232.251 341.702Z" fill="#0A2533"/>
<path opacity="0.25" d="M194.711 388.332C194.695 388.623 194.614 388.933 194.491 389.252C193.708 391.311 190.973 393.781 189.332 393.985C189.16 394.006 188.81 393.741 188.313 393.227C195.351 385.01 176.955 345.003 180.956 344.889C182.931 344.835 187.299 347.61 192.353 350.649C188.018 349.15 185.014 347.975 184.68 348.022C183.804 348.136 194.859 386.164 194.711 388.332Z" fill="#010101"/>
<path opacity="0.25" d="M232.251 341.702V342.485C232.251 342.485 231.386 357.332 217.946 356.692C220.591 354.944 221.081 351.864 220.884 348.136C220.656 343.821 215.83 336.435 213.12 332.6C216.526 333.032 218.721 333.336 218.721 333.336L232.251 341.702Z" fill="#010101"/>
<path d="M203.651 292.949C203.203 293.531 202.909 294.017 202.909 294.387C202.909 294.387 202.893 294.365 202.861 294.319C202.704 294.09 202.141 293.287 201.417 292.354C200.192 290.789 198.501 288.843 197.48 288.606C195.839 288.235 191.472 292.798 185.569 293.164C185.177 293.193 184.786 293.197 184.385 293.186C177.887 292.942 170.995 285.319 176.53 276.338C178.466 279.626 182.442 279.707 182.442 279.707C182.442 279.707 180.016 279.303 179.928 276.817C187.004 277.857 190.689 273.448 196.803 275.054C202.909 276.654 202.527 279.706 202.527 279.706C202.527 279.706 207.179 278.18 208.632 282.994C209.799 286.845 205.448 290.64 203.651 292.949Z" fill="#0A2533"/>
<path d="M202.861 294.321C202.445 295.536 201.651 296.86 200.582 297.933C199.286 299.244 197.571 300.202 195.635 300.162C191.504 300.081 187.397 295.496 185.57 293.165C191.472 292.801 195.839 288.238 197.48 288.608C198.501 288.844 200.19 290.789 201.417 292.356C202.14 293.288 202.705 294.092 202.861 294.321Z" fill="url(#paint1_linear_112_666)"/>
<path d="M208.827 294.785C208.827 294.785 205.725 300.647 204.558 299.363C203.93 298.668 202.117 298.21 200.582 297.931C201.653 296.859 202.445 295.534 202.861 294.319C202.894 294.365 202.909 294.387 202.909 294.387C202.909 294.015 203.203 293.529 203.651 292.949C205.904 294.355 208.827 294.785 208.827 294.785Z" fill="url(#paint2_linear_112_666)"/>
<path d="M230.651 344.288C225.703 343.687 212.322 331.654 212.322 326.476C212.322 325.746 212.225 324.935 212.061 324.052C211.033 318.663 207.27 310.763 205.702 305.179C203.882 298.683 206.501 296.252 206.501 296.252C212.592 287.59 226.376 304.761 234.238 318.528L234.247 318.536C236.891 323.174 238.64 327.482 238.802 330.366C239.365 340.114 235.598 344.889 230.651 344.288Z" fill="#9DC2E7"/>
<path opacity="0.25" d="M230.651 344.288C225.703 343.687 212.322 331.654 212.322 326.476C212.322 325.746 212.225 324.935 212.061 324.052L212.029 321.743L216.877 300.729C216.877 300.729 223.572 307.313 224.641 319.103C225.703 330.892 241.398 333.458 234.245 318.536C236.889 323.174 238.638 327.482 238.8 330.366C239.365 340.114 235.598 344.889 230.651 344.288Z" fill="#010101"/>
<path d="M220.273 318.298C220.143 318.39 219.914 318.465 219.612 318.534C217.318 319.059 210.632 318.979 207.847 318.527C207.432 318.459 207.096 318.379 206.885 318.298C205.049 317.575 206.885 315.807 206.306 312.68C205.725 309.547 204.271 300.404 209.897 297.595C215.782 294.657 220.076 305.777 220.273 311.316C220.47 316.854 221.539 317.414 220.273 318.298Z" fill="#9DC2E7"/>
<path d="M219.612 318.534C219.612 318.534 219.344 332.058 216.224 338.44C216.224 338.447 216.224 338.447 216.224 338.453C215.253 340.439 214.004 341.728 212.395 341.702C205.628 341.58 190.426 328.285 189.04 327.799C187.66 327.319 180.745 328.163 180.965 327.319C181.185 326.476 183.879 324.61 186.784 323.713C189.7 322.81 189.185 323.349 207.881 330.453C207.627 329.088 207.734 323.187 207.815 319.844C207.824 319.338 207.842 318.893 207.849 318.528C210.634 318.979 217.318 319.06 219.612 318.534Z" fill="url(#paint3_linear_112_666)"/>
<path d="M200.288 397.475C200.762 399.885 181.183 416.367 182.203 412.039C183.215 407.705 189.331 393.984 189.331 393.984C190.972 393.78 193.706 391.311 194.489 389.25C196.091 391.546 199.888 395.476 200.288 397.475Z" fill="#5462AD"/>
<path opacity="0.25" d="M217.946 346.855C217.946 346.855 186.52 341.975 180.311 344.335C174.103 346.694 191.67 387.77 191.67 387.77" stroke="white" stroke-width="0.4597" stroke-miterlimit="10"/>
<path opacity="0.25" d="M216.224 338.44C216.82 335.724 217.27 327.831 215.62 324.712C214.51 322.604 210.38 320.795 207.813 319.844C207.822 319.338 207.84 318.893 207.847 318.528C210.632 318.981 217.318 319.06 219.612 318.536C219.612 318.534 219.344 332.058 216.224 338.44Z" fill="#010101"/>
<path d="M724.126 246.967C723.49 248.992 722.429 251.599 720.779 255.089C718.428 260.092 714.876 266.912 709.643 276.419C709.513 281.248 707.652 312.044 707.146 319.133C707.08 319.999 707.039 320.511 707.023 320.579C706.95 320.889 705.603 321.483 704.134 321.787C702.745 322.084 701.261 322.124 700.621 321.422C699.307 319.978 690.433 290.853 690.002 283.996C689.562 277.135 689.128 278.701 699.307 251.389C696.834 252.348 680.8 251.99 680.8 251.99C680.8 251.99 683.739 285.44 683.755 285.682C683.755 285.716 683.73 285.797 683.673 285.911C683.486 286.371 682.897 287.392 682.261 287.904C681.975 288.139 681.68 288.274 681.411 288.207C681.256 288.174 680.88 287.889 680.334 287.411C677.257 284.708 668.815 275.621 664.242 267.147C658.861 257.159 657.545 250.177 662.642 243.202C667.737 236.221 693.534 235.687 693.534 235.687C695.168 236.064 698.922 236.436 702.637 237.166C703.731 237.376 704.825 237.625 705.855 237.909C711.505 239.461 722.272 241.432 724.591 240.326C725.106 241.816 725.22 243.558 724.126 246.967Z" fill="#6561AB"/>
<path d="M745.509 223.712C744.488 224.191 732.634 223.827 724.624 221.301C724.664 222.468 724.844 224.306 725.048 226.393C725.368 229.681 725.735 233.591 725.645 236.44C725.595 238.473 725.311 239.971 724.624 240.316C724.615 240.324 724.608 240.329 724.59 240.329C723.359 240.917 719.749 240.633 715.782 240.012C713.217 239.607 710.508 239.06 708.197 238.513C707.355 238.31 706.565 238.109 705.855 237.912C701.316 236.656 695.651 236.176 693.534 235.69C693.003 235.568 692.701 235.453 692.684 235.318C692.62 234.656 694.651 233.158 695.607 231.591C695.72 231.395 695.875 231.104 696.047 230.733C696.823 229.092 698.039 225.986 698.627 224.008C698.977 222.84 699.108 222.07 698.8 222.204C697.853 222.623 692.25 231.286 691.597 231.286C691.369 231.286 690.242 230.753 688.903 230.003C686.649 228.74 683.817 226.883 683.751 225.999C683.735 225.877 683.776 225.776 683.883 225.695C685.197 224.668 695.23 210.711 698.871 207.734C700.577 206.329 702.594 205.485 704.235 204.986C706.072 204.419 707.46 204.29 707.46 204.29C709.623 204.228 711.802 204.466 713.926 204.911C721.143 206.403 727.765 210.172 731.537 212.035C736.41 214.439 739.757 213.778 740.99 214.379C742.234 214.988 746.52 223.226 745.509 223.712Z" fill="#242057"/>
<path d="M725.645 236.44C718.934 236.508 704.017 236.014 696.049 230.734C696.825 229.094 698.041 225.987 698.629 224.009C698.629 224.009 714.377 227.958 725.048 226.393C725.368 229.681 725.735 233.591 725.645 236.44Z" fill="#CF902A"/>
<path opacity="0.25" d="M713.929 204.914C713.67 207.223 712.681 209.708 709.643 209.513C705.358 209.237 704.434 206.339 704.239 204.989C706.075 204.422 707.464 204.293 707.464 204.293C709.627 204.231 711.806 204.468 713.929 204.914Z" fill="#010101"/>
<path d="M712.116 199.882C712.116 199.882 711.39 197.418 709.929 196.149C708.746 197.742 704.182 198.559 700.662 198.769C698.997 198.87 697.56 198.837 696.834 198.681C694.36 190.734 702.074 187.248 706.37 187.006C710.655 186.762 714.517 189.403 713.351 193.435C717.202 196.575 712.116 199.882 712.116 199.882Z" fill="#321212"/>
<path d="M712.116 199.882C711.896 200.41 711.553 201.335 710.966 202.199H710.957C709.994 203.636 708.378 204.913 705.578 203.974C705.48 203.94 705.382 203.907 705.292 203.867C702.934 202.981 701.708 201.26 701.089 199.903C700.893 199.477 700.755 199.086 700.664 198.769C704.182 198.559 708.748 197.742 709.93 196.149C709.996 196.211 710.062 196.271 710.126 196.331C711.456 197.641 712.116 199.882 712.116 199.882Z" fill="url(#paint4_linear_112_666)"/>
<path d="M711.749 206.02C711.317 208.248 706.876 208.128 706.393 206.682C706.139 205.933 705.853 205.211 705.633 204.684C705.437 204.192 705.29 203.873 705.29 203.873V203.867C705.381 203.907 705.478 203.94 705.576 203.974C708.376 204.913 709.992 203.638 710.955 202.198H710.964C710.662 202.698 711.47 203.326 711.74 204.507C711.839 204.933 711.864 205.434 711.749 206.02Z" fill="url(#paint5_linear_112_666)"/>
<path d="M688.686 294.227C688.253 296.995 670.937 307.826 671.232 305.902C671.516 303.976 680.334 287.414 680.334 287.414C680.881 287.892 681.258 288.177 681.411 288.21C682.284 288.42 683.394 286.582 683.671 285.914C685.999 288.332 689.077 291.755 688.686 294.227Z" fill="#242057"/>
<path d="M700.62 343.971C696.546 336.745 700.62 321.423 700.62 321.423C701.927 322.868 706.874 321.181 707.02 320.58C707.037 320.513 707.077 319.998 707.142 319.135C707.142 319.135 707.796 326.476 708.572 332.694C709.348 338.913 704.695 351.188 700.62 343.971Z" fill="#242057"/>
<path opacity="0.25" d="M699.305 251.39C696.832 252.349 680.798 251.991 680.798 251.991C680.798 251.991 683.737 285.441 683.753 285.683C683.753 285.717 683.728 285.798 683.671 285.913C683.485 286.372 682.895 287.393 682.259 287.906C679.304 276.46 673.41 254.514 678.111 250.747C684.129 245.933 700.424 244.65 700.66 245.703C700.898 246.764 699.305 251.39 699.305 251.39Z" fill="#010101"/>
<path d="M687.77 235.583C687.534 235.988 687.411 236.326 687.486 236.549C687.835 237.67 685.974 251.708 686.653 253.153C687.329 254.598 687.722 259.169 687.329 262.059C686.937 264.95 679.665 266.712 679.665 264.227C679.665 261.736 680.539 255.882 680.832 253.633C681.125 251.392 678.408 235.145 679.134 232.896C679.608 231.43 681.428 228.947 682.636 227.4C683.28 226.57 683.755 226.002 683.755 226.002C683.863 227.412 691.005 231.289 691.6 231.289C691.598 231.288 688.725 233.949 687.77 235.583Z" fill="url(#paint6_linear_112_666)"/>
<path opacity="0.25" d="M724.126 246.967C720.917 246.771 717.309 245.609 714.794 243.522C711.871 241.105 706.997 238.864 702.637 237.169C703.731 237.379 704.825 237.628 705.855 237.912C711.505 239.464 722.272 241.435 724.592 240.329C725.107 241.816 725.22 243.558 724.126 246.967Z" fill="#010101"/>
<path opacity="0.25" d="M720.779 255.09C718.428 260.094 714.876 266.913 709.643 276.42C709.513 281.249 707.652 312.045 707.146 319.135C707.08 320 707.039 320.513 707.023 320.58C706.95 320.89 705.603 321.485 704.134 321.789C704.468 311.404 704.027 288.797 706.151 282.072C708.687 274.023 720.069 256.197 720.779 255.09Z" fill="#010101"/>
<path opacity="0.25" d="M708.197 238.513C707.355 238.31 706.565 238.109 705.855 237.912C701.316 236.656 695.651 236.176 693.534 235.69C693.003 235.568 692.701 235.453 692.684 235.318C692.62 234.656 694.651 233.158 695.607 231.59C696.553 230.023 699.746 221.779 698.8 222.204C697.853 222.622 692.25 231.286 691.597 231.286C691.369 231.286 690.242 230.753 688.903 230.003C689.041 229.807 689.196 229.611 689.368 229.402C692.856 225.149 698.579 219.855 699.549 215.283C700.325 211.914 701.492 213.838 701.295 218.174C701.121 222.064 700.867 233.976 708.197 238.513Z" fill="#010101"/>
<path opacity="0.25" d="M724.624 240.316C724.615 240.324 724.608 240.329 724.59 240.329C723.359 240.917 719.749 240.633 715.782 240.012C722.876 234.131 719.005 218.202 720.117 219.02C721.422 219.979 724.622 221.302 724.622 221.302C724.771 225.636 726.886 239.175 724.624 240.316Z" fill="#010101"/>
<path opacity="0.25" d="M691.598 231.288C691.598 231.288 688.725 233.949 687.77 235.583C687.745 235.224 687.715 234.894 687.672 234.597C687.452 232.876 684.211 229.133 682.634 227.399C683.279 226.569 683.753 226.001 683.753 226.001C683.861 227.412 691.004 231.288 691.598 231.288Z" fill="#010101"/>
<path opacity="0.25" d="M710.124 196.331C708.378 199.525 703.243 199.896 701.087 199.903C700.891 199.477 700.753 199.086 700.662 198.769C704.18 198.559 708.746 197.742 709.929 196.149C709.994 196.211 710.06 196.271 710.124 196.331Z" fill="#010101"/>
<path opacity="0.25" d="M711.74 204.509C711.413 204.719 711.015 204.874 710.516 204.968C708.174 205.408 706.524 205.03 705.634 204.685C705.439 204.193 705.292 203.874 705.292 203.874V203.868C705.382 203.908 705.48 203.942 705.578 203.976C708.378 204.914 709.994 203.639 710.957 202.2H710.965C710.664 202.699 711.472 203.326 711.74 204.509Z" fill="#010101"/>
<path d="M734.957 -44.6167V255.09" stroke="#0A2533" stroke-width="0.9195" stroke-miterlimit="10"/>
<path d="M750.235 219.418C750.219 219.499 750.196 219.579 750.178 219.654C749.215 223.28 745.704 223.665 745.042 223.429C744.381 223.192 742.634 221.531 741.107 215.678C741.073 215.562 741.05 215.448 741.016 215.327C741.016 215.327 737.719 208.332 736.168 204.969C732.34 203.091 731.613 203.855 731.073 201.687C730.542 199.52 732.242 196.717 733.213 196.312C734.185 195.914 738.544 199.283 739.132 200.526C739.711 201.767 751.108 215.568 750.235 219.418Z" fill="url(#paint7_linear_112_666)"/>
<path opacity="0.25" d="M750.178 219.654C749.215 223.28 745.704 223.665 745.042 223.429C744.381 223.192 742.634 221.531 741.107 215.678C742.078 217.304 743.573 219.412 745.214 220.283C747.017 221.233 749.043 220.931 750.178 219.654Z" fill="#010101"/>
<path d="M621.633 409.217L612.276 369.697C605.354 340.467 592.005 319.144 572.231 305.718C552.448 292.301 528.015 287.947 498.925 292.66C469.835 297.373 449.205 308.973 437.048 327.452C424.883 345.941 422.271 369.85 429.218 399.183L438.607 438.853C445.506 467.982 458.839 489.258 478.62 502.675C486.972 508.34 496.165 512.39 506.199 514.817C519.922 518.146 535.223 518.436 552.097 515.707C560.841 514.295 568.827 512.249 576.035 509.575C592.72 503.39 605.309 493.849 613.801 480.939C625.967 462.452 628.573 438.542 621.633 409.217ZM563.226 462.263C560.026 470.367 553.258 475.255 542.921 476.93C532.218 478.664 523.522 476.179 516.813 469.469C512.24 464.896 508.33 458.111 505.087 449.111C505.087 449.103 505.087 449.096 505.087 449.096C505.08 449.083 505.08 449.068 505.071 449.049C503.569 444.876 502.214 440.223 501.004 435.099L487.87 379.617C484.793 365.044 484.784 353.795 487.836 345.867C490.891 337.942 497.65 333.126 508.108 331.438C516.085 330.142 522.966 331.256 528.746 334.768H528.755C530.723 335.969 532.566 337.441 534.281 339.198C541.033 346.105 546.258 357.369 549.948 372.972L562.659 426.66C566.239 442.29 566.427 454.153 563.226 462.263Z" fill="#FA8443"/>
<path opacity="0.25" d="M567.921 469.677C570.617 473.108 574.198 496.43 576.036 509.576C568.827 512.251 560.841 514.297 552.098 515.708C535.224 518.436 519.924 518.146 506.2 514.818C506.761 513.771 507.276 512.677 507.717 511.556C516.282 489.915 505.579 450.867 505.089 449.111C508.33 458.111 512.24 464.896 516.814 469.469C523.523 476.179 532.22 478.664 542.923 476.93C553.258 475.254 560.027 470.366 563.227 462.263C566.429 454.154 566.239 442.29 562.664 426.658L549.953 372.971C546.263 357.367 541.037 346.104 534.287 339.196C532.571 337.441 530.728 335.969 528.76 334.766C549.408 338.115 566.177 390.986 573.165 416.49C580.144 441.999 580.732 453.796 567.921 469.677Z" fill="#010101"/>
<path d="M509.644 459.484C509.644 459.484 510.983 462.379 518.015 463.983C525.049 465.587 531.644 456.589 536.3 459.484C540.957 462.379 548.408 474.377 554.964 472.55C561.521 470.723 563.46 499.604 560.358 502.813C557.253 506.022 555.021 480.084 546.826 480.86C538.629 481.632 544.837 501.208 540.181 504.738C535.524 508.269 537.465 496.074 532.422 493.827C527.377 491.582 537.854 592.023 530.092 593.627C522.332 595.232 517.288 589.134 520.393 567.635C523.497 546.136 519.615 472.007 514.959 468.156C510.306 464.305 510.597 463.582 509.644 459.484Z" fill="#242057"/>
<path d="M507.719 -44.6167V305.78" stroke="#0A2533" stroke-width="0.9195" stroke-miterlimit="10"/>
<path d="M608.443 170.28C608.443 170.28 602.262 156.261 602.77 155.177C603.279 154.095 610.07 152.049 610.569 152.65C611.065 153.252 615.357 164.143 614.629 164.924C613.901 165.707 608.443 170.28 608.443 170.28Z" fill="#1B1841"/>
<path d="M505.575 151.896C505.575 151.896 509.349 153.19 511.027 156.561C512.703 159.93 512.05 147.777 512.05 147.777L510.231 146.393L505.575 151.896Z" fill="url(#paint8_linear_112_666)"/>
<path d="M503.611 151.896C503.611 151.896 508.34 154.815 509.141 154.995C509.94 155.176 511.485 147.534 510.787 146.331C510.086 145.127 507.523 143.924 505.859 144.707C504.194 145.49 502.837 151.423 503.611 151.896Z" fill="url(#paint9_linear_112_666)"/>
<path d="M516.198 152.77C516.198 152.77 512.432 145.55 510.787 144.287C509.141 143.024 506.087 144.648 505.866 145.309C505.646 145.97 509.521 146.452 510.787 147.536C512.052 148.62 508.631 156.621 511.906 159.45C515.179 162.277 516.198 152.77 516.198 152.77Z" fill="url(#paint10_linear_112_666)"/>
<path d="M603.789 171.903C603.789 171.903 607.135 170.399 607.863 169.616C608.589 168.834 607.28 165.886 609.39 163.179C611.5 160.471 616.01 161.254 617.101 164.502C618.193 167.751 615.357 171.843 614.046 173.106C612.736 174.369 603.789 179.664 603.789 179.664" fill="url(#paint11_linear_112_666)"/>
<path d="M606.186 178.181C606.089 178.661 605.492 179.483 604.334 180.605C600.088 184.71 588.389 192.746 567.301 201.93C566.886 203.334 566.559 204.766 566.314 206.196C565.531 210.767 565.545 215.386 565.808 219.538C565.872 220.606 565.953 221.646 566.044 222.645C566.429 227.02 566.951 230.633 566.813 232.726C566.747 233.644 566.552 234.265 566.177 234.541C565.703 234.885 565.204 235.196 564.682 235.474C554.149 241.065 534.979 232.713 531.877 230.2C531.632 230.004 531.484 229.841 531.454 229.727C530.914 228.039 533.005 226.236 534.171 223.345C534.367 222.853 534.564 221.752 534.759 220.246C535.315 215.796 535.796 207.835 535.968 201.846C536.066 198.023 536.041 195.006 535.83 194.209C535.821 194.195 535.821 194.181 535.821 194.181C535.242 192.216 517.582 170.15 512.284 162.33C511.313 160.905 510.759 159.954 510.789 159.684C510.984 157.921 515.058 151.663 515.932 151.744C516.079 151.757 516.619 152.318 517.434 153.249C521.526 157.949 532.53 172.156 534.555 173.965C536.45 175.66 546.091 184.054 550.223 187.652C551.39 188.658 552.116 189.293 552.116 189.293C554.354 189.259 556.596 189.09 558.843 188.801C578.69 186.269 598.193 174.776 603.297 171.582C604.137 171.056 604.588 170.758 604.588 170.758C604.588 170.758 606.627 175.933 606.186 178.181Z" fill="#CF902A"/>
<path d="M556.659 196.553C549.889 197.458 549.87 190.173 550.221 187.654C551.388 188.66 552.114 189.294 552.114 189.294C554.352 189.261 556.595 189.092 558.841 188.802C559.683 191.672 559.008 196.243 556.659 196.553Z" fill="#C54527"/>
<path d="M563.511 180.936C562.197 181.591 560.482 181.814 558.294 181.347C556.612 180.996 554.643 180.234 552.349 178.943C552.349 178.943 550.535 180.746 550.39 184.054C545.588 180.625 544.421 177.194 548.495 175.931C546.822 169.915 550.39 168.652 556.35 168.355C562.318 168.051 563.698 173.108 567.264 172.987C567.48 175.684 566.557 179.444 563.511 180.936Z" fill="#1B1841"/>
<path d="M563.512 180.936C563.446 181.422 563.348 181.982 563.21 182.584C562.409 186.103 560.319 191.011 557.168 190.741C557.005 190.735 556.835 190.707 556.653 190.66C553.821 189.924 552.114 187.649 551.225 185.975C550.637 184.888 550.392 184.057 550.392 184.057C550.44 183.011 550.651 182.112 550.923 181.377C551.502 179.789 552.351 178.946 552.351 178.946C554.645 180.235 556.613 180.999 558.296 181.35C560.482 181.814 562.198 181.591 563.512 180.936Z" fill="url(#paint12_linear_112_666)"/>
<path d="M557.168 192.813C557.135 194.09 556.923 195.088 555.895 195.149C553.812 195.271 551.045 193.022 551.193 190.578C551.241 189.748 551.258 188.864 551.258 188.053C551.258 187.235 551.241 186.493 551.225 185.974C552.114 187.648 553.821 189.923 556.653 190.659C556.834 190.706 557.005 190.734 557.168 190.74C557.159 191.45 557.193 192.166 557.168 192.813Z" fill="url(#paint13_linear_112_666)"/>
<path d="M606.186 178.181C606.089 178.661 605.492 179.483 604.334 180.605C604.389 177.736 603.631 173.381 603.297 171.583C604.137 171.057 604.588 170.759 604.588 170.759C604.588 170.759 606.627 175.933 606.186 178.181Z" fill="#C54527"/>
<path d="M517.432 153.252C514.332 155.446 512.819 160.228 512.283 162.335C511.311 160.91 510.757 159.958 510.787 159.688C510.983 157.925 515.056 151.667 515.93 151.748C516.079 151.76 516.617 152.319 517.432 153.252Z" fill="#C54527"/>
<path d="M566.042 222.645C559.104 223.474 546.048 224.212 534.757 220.248C535.313 215.797 535.794 207.837 535.967 201.847C541.559 203.805 553.633 207.289 566.314 206.195C565.325 211.943 565.602 217.77 566.042 222.645Z" fill="#FCAF17"/>
<path opacity="0.25" d="M564.68 235.475C553.331 241.499 531.957 231.336 531.453 229.728C530.913 228.041 533.003 226.237 534.17 223.347C534.365 222.855 534.562 221.753 534.757 220.248C535.313 215.797 535.795 207.837 535.967 201.848C536.064 198.024 536.04 195.008 535.828 194.21C536.073 194.831 539.911 204.892 541.877 214.683C543.917 224.79 543.477 229.606 549.445 232.854C552.938 234.751 559.315 235.751 564.68 235.475Z" fill="#010101"/>
<path d="M590.616 263.26C590.616 267.433 572.376 290.554 568.599 295.299C568.166 295.847 567.921 296.151 567.921 296.151C567.921 296.151 565.57 295.928 563.634 295.387C562.288 295.001 561.137 294.475 561.137 293.747C561.137 293.597 561.171 293.368 561.228 293.064C561.872 289.843 565.88 278.189 571.025 262.78C568.315 260.053 549.301 249.621 549.301 249.621C549.301 249.621 549.292 249.634 549.284 249.66C548.46 251.233 522.065 301.713 519.068 306.42C518.961 306.589 518.887 306.696 518.839 306.745C517.484 308.19 511.858 308.346 511.467 305.3C511.467 305.294 511.467 305.294 511.467 305.286C509.851 292.526 523.158 254.035 529.355 237.015C530.465 233.963 531.346 231.599 531.877 230.201C534.979 232.713 554.149 241.065 564.682 235.475C565.204 235.198 565.703 234.888 566.177 234.543C566.552 234.267 566.747 233.645 566.813 232.727C567.008 232.902 567.214 233.092 567.416 233.294C574.761 240.241 590.616 259.242 590.616 263.26Z" fill="#9DC2E7"/>
<path d="M520.927 313.483C520.201 316.488 500.99 325.395 502.739 320.006C504.16 315.636 509.498 308.014 511.466 305.286C511.466 305.294 511.466 305.294 511.466 305.3C511.858 308.346 517.484 308.192 518.837 306.745C518.885 306.698 518.96 306.591 519.066 306.42C520.046 308.744 521.401 311.539 520.927 313.483Z" fill="#242057"/>
<path d="M574.909 310.835C573.447 311.437 554.538 305.42 554.972 303.374C555.412 301.328 561.224 293.064 561.224 293.064C561.168 293.368 561.134 293.597 561.134 293.747C561.134 295.508 567.917 296.151 567.917 296.151C567.917 296.151 568.163 295.847 568.596 295.299C569.439 301.546 576.273 310.27 574.909 310.835Z" fill="#242057"/>
<path opacity="0.25" d="M546.826 247.898C546.826 247.898 525.873 281.929 518.015 305.286" stroke="#010101" stroke-width="0.4597" stroke-miterlimit="10"/>
<path opacity="0.25" d="M551.771 247.898C551.771 247.898 575.051 260.533 575.926 262.579C576.798 264.625 563.849 293.065 563.849 293.065" stroke="#010101" stroke-width="0.4597" stroke-miterlimit="10"/>
<path opacity="0.25" d="M567.415 233.293C564.852 241.76 550.008 239.458 542.416 237.831C538 236.885 532.937 236.851 529.355 237.013C530.465 233.961 531.346 231.598 531.877 230.2C534.979 232.711 554.149 241.064 564.682 235.474C565.204 235.196 565.703 234.886 566.177 234.541C566.552 234.265 566.747 233.644 566.813 232.726C567.006 232.902 567.21 233.092 567.415 233.293Z" fill="#010101"/>
<path opacity="0.25" d="M563.634 295.389C562.288 295.002 561.137 294.477 561.137 293.748C561.137 293.598 561.171 293.369 561.228 293.065C561.873 289.844 565.881 278.19 571.025 262.782C568.315 260.054 549.302 249.622 549.302 249.622C549.302 249.622 550.852 245.294 552.599 244.971C554.345 244.653 574.52 259.009 576.749 261.98C578.715 264.59 564.975 285.901 563.634 295.389Z" fill="#010101"/>
<path opacity="0.25" d="M563.511 180.936C563.446 181.422 563.348 181.982 563.21 182.584C558.124 184.725 553.134 179.903 552.539 179.964C552.196 179.997 551.493 180.727 550.923 181.375C551.502 179.787 552.35 178.944 552.35 178.944C554.645 180.234 556.612 180.998 558.296 181.349C560.482 181.814 562.197 181.591 563.511 180.936Z" fill="#010101"/>
<path opacity="0.25" d="M557.168 192.813C553.812 192.138 551.958 189.356 551.258 188.053C551.258 187.235 551.241 186.493 551.225 185.974C552.114 187.648 553.821 189.923 556.653 190.659C556.834 190.706 557.005 190.734 557.168 190.74C557.159 191.45 557.193 192.166 557.168 192.813Z" fill="#010101"/>
<path opacity="0.25" d="M566.314 206.196C565.531 210.767 565.545 215.386 565.808 219.538C564.485 214.926 563.327 209.97 564.68 207.101C567.014 202.159 567.267 201.93 567.301 201.93C566.884 203.334 566.557 204.764 566.314 206.196Z" fill="#010101"/>
<path d="M402.963 252.241L340.148 243.314L340.05 243.779L201.332 372.95L198.467 405.24L218.364 408.069L252.8 412.964L299.025 419.535L303.419 420.156L300.112 436.085L298.578 443.453L293.524 467.794L334.409 473.607L356.34 476.721L366.233 429.083L393.828 432.999L402.155 392.91L374.56 388.995L402.963 252.241ZM324.547 318.433L311.737 380.068L296.413 377.887L262.898 373.128L281.455 354.809L285.701 350.615L321.085 315.686L326.089 311.001L324.547 318.433Z" fill="#242057"/>
<path opacity="0.25" d="M299.025 419.535L252.801 412.964C258.245 398.089 265.04 377.588 262.9 373.127L296.415 377.885C298.562 380.845 300.26 384.914 300.718 390.5C301.533 400.386 299.752 410.48 299.025 419.535Z" fill="#010101"/>
<path d="M264.899 373.414C264.899 373.414 269.939 367.631 281.288 369.437C292.638 371.244 293.511 382.797 288.564 395.552C283.616 408.308 282.453 452.832 284.78 467.273C287.109 481.713 285.653 488.453 280.125 488.933C274.597 489.415 271.976 471.604 275.178 459.091C278.38 446.576 278.088 435.023 272.85 436.948C267.611 438.875 271.976 443.688 269.357 448.019C266.737 452.351 258.881 449.704 259.172 441.52C259.463 433.337 275.284 380.156 264.899 373.414Z" fill="#9DC2E7"/>
<path opacity="0.25" d="M374.56 388.995L402.155 392.91L393.828 432.999L366.233 429.083L356.338 476.721L334.409 473.606L372.953 274.699L402.963 252.241L374.56 388.995Z" fill="#010101"/>
<path d="M355.784 -44.6167V265.409" stroke="#0A2533" stroke-width="0.9195" stroke-miterlimit="10"/>
<path d="M461.416 203.598C467.684 203.598 472.765 199.396 472.765 194.212C472.765 189.028 467.684 184.825 461.416 184.825C455.148 184.825 450.066 189.028 450.066 194.212C450.066 199.396 455.148 203.598 461.416 203.598Z" fill="#CF902A"/>
<path d="M856.289 322.882C862.557 322.882 867.638 318.679 867.638 313.495C867.638 308.311 862.557 304.109 856.289 304.109C850.021 304.109 844.939 308.311 844.939 313.495C844.939 318.679 850.021 322.882 856.289 322.882Z" fill="#242057"/>
<path d="M262.9 254.35C269.168 254.35 274.249 250.147 274.249 244.963C274.249 239.779 269.168 235.577 262.9 235.577C256.632 235.577 251.55 239.779 251.55 244.963C251.55 250.147 256.632 254.35 262.9 254.35Z" fill="#9DC2E7"/>
<path d="M450.068 541.4C456.336 541.4 461.418 537.198 461.418 532.014C461.418 526.83 456.336 522.627 450.068 522.627C443.8 522.627 438.719 526.83 438.719 532.014C438.719 537.198 443.8 541.4 450.068 541.4Z" fill="#CF902A"/>
<path d="M791.411 226.087C793.828 226.087 795.788 224.466 795.788 222.467C795.788 220.467 793.828 218.846 791.411 218.846C788.993 218.846 787.033 220.467 787.033 222.467C787.033 224.466 788.993 226.087 791.411 226.087Z" fill="#CF902A"/>
<path d="M457.038 282.461C459.456 282.461 461.416 280.84 461.416 278.841C461.416 276.841 459.456 275.22 457.038 275.22C454.621 275.22 452.661 276.841 452.661 278.841C452.661 280.84 454.621 282.461 457.038 282.461Z" fill="#9DC2E7"/>
<path d="M326.089 233.441C328.506 233.441 330.466 231.82 330.466 229.821C330.466 227.821 328.506 226.2 326.089 226.2C323.671 226.2 321.711 227.821 321.711 229.821C321.711 231.82 323.671 233.441 326.089 233.441Z" fill="#242057"/>
</g>
<defs>
<linearGradient id="paint0_linear_112_666" x1="722.59" y1="349.891" x2="732.156" y2="534.953" gradientUnits="userSpaceOnUse">
<stop stop-color="#CF902A"/>
<stop offset="1" stop-color="#F47920"/>
</linearGradient>
<linearGradient id="paint1_linear_112_666" x1="193.428" y1="299.875" x2="194.526" y2="287.316" gradientUnits="userSpaceOnUse">
<stop stop-color="#FBC4AF"/>
<stop offset="1" stop-color="#EA8B69"/>
</linearGradient>
<linearGradient id="paint2_linear_112_666" x1="213.596" y1="295.689" x2="199.661" y2="296.918" gradientUnits="userSpaceOnUse">
<stop stop-color="#FBC4AF"/>
<stop offset="1" stop-color="#EA8B69"/>
</linearGradient>
<linearGradient id="paint3_linear_112_666" x1="195.309" y1="342.843" x2="204.272" y2="303.931" gradientUnits="userSpaceOnUse">
<stop stop-color="#FBC4AF"/>
<stop offset="1" stop-color="#EA8B69"/>
</linearGradient>
<linearGradient id="paint4_linear_112_666" x1="706.173" y1="203.421" x2="706.572" y2="192.405" gradientUnits="userSpaceOnUse">
<stop stop-color="#FBC4AF"/>
<stop offset="1" stop-color="#EA8B69"/>
</linearGradient>
<linearGradient id="paint5_linear_112_666" x1="708.757" y1="208.104" x2="708.459" y2="200.278" gradientUnits="userSpaceOnUse">
<stop stop-color="#FBC4AF"/>
<stop offset="1" stop-color="#EA8B69"/>
</linearGradient>
<linearGradient id="paint6_linear_112_666" x1="679.569" y1="267.148" x2="686.788" y2="210.416" gradientUnits="userSpaceOnUse">
<stop stop-color="#FBC4AF"/>
<stop offset="1" stop-color="#EA8B69"/>
</linearGradient>
<linearGradient id="paint7_linear_112_666" x1="738.178" y1="199.219" x2="743.813" y2="235.152" gradientUnits="userSpaceOnUse">
<stop stop-color="#FBC4AF"/>
<stop offset="1" stop-color="#EA8B69"/>
</linearGradient>
<linearGradient id="paint8_linear_112_666" x1="507.083" y1="146.795" x2="510.78" y2="156.292" gradientUnits="userSpaceOnUse">
<stop stop-color="#FBC4AF"/>
<stop offset="1" stop-color="#EA8B69"/>
</linearGradient>
<linearGradient id="paint9_linear_112_666" x1="499.359" y1="146.573" x2="511.198" y2="152.578" gradientUnits="userSpaceOnUse">
<stop stop-color="#FBC4AF"/>
<stop offset="1" stop-color="#EA8B69"/>
</linearGradient>
<linearGradient id="paint10_linear_112_666" x1="506.623" y1="143.203" x2="512.536" y2="158.394" gradientUnits="userSpaceOnUse">
<stop stop-color="#FBC4AF"/>
<stop offset="1" stop-color="#EA8B69"/>
</linearGradient>
<linearGradient id="paint11_linear_112_666" x1="622.645" y1="157.375" x2="604.437" y2="183.544" gradientUnits="userSpaceOnUse">
<stop stop-color="#FBC4AF"/>
<stop offset="1" stop-color="#EA8B69"/>
</linearGradient>
<linearGradient id="paint12_linear_112_666" x1="557.944" y1="192.042" x2="556.248" y2="168.159" gradientUnits="userSpaceOnUse">
<stop stop-color="#FBC4AF"/>
<stop offset="1" stop-color="#EA8B69"/>
</linearGradient>
<linearGradient id="paint13_linear_112_666" x1="553.713" y1="192.227" x2="554.515" y2="186.043" gradientUnits="userSpaceOnUse">
<stop stop-color="#FBC4AF"/>
<stop offset="1" stop-color="#EA8B69"/>
</linearGradient>
<clipPath id="clip0_112_666">
<rect width="1051" height="618" fill="white" transform="translate(0.5)"/>
</clipPath>
</defs>
</svg>
